<svg xmlns="http://www.w3.org/2000/svg">
  <symbol id="circle-help" viewBox="0 0 24 24">
    <circle cx="12" cy="12" r="9" />
    <path d="M9.8 9a2.35 2.35 0 1 1 3.8 1.85c-.95.7-1.6 1.1-1.6 2.15M12 16h.01" />
  </symbol>
  <symbol id="settings" viewBox="0 0 24 24">
    <circle cx="12" cy="12" r="3" />
    <path d="M19.4 15a1.7 1.7 0 0 0 .34 1.88l.06.06-1.7 1.7-.06-.06a1.7 1.7 0 0 0-1.88-.34 1.7 1.7 0 0 0-1.03 1.56V20h-2.4v-.2a1.7 1.7 0 0 0-1.03-1.56 1.7 1.7 0 0 0-1.88.34l-.06.06-1.7-1.7.06-.06A1.7 1.7 0 0 0 8.4 15a1.7 1.7 0 0 0-1.56-1.03H6v-2.4h.84A1.7 1.7 0 0 0 8.4 10a1.7 1.7 0 0 0-.34-1.88L8 8.06l1.7-1.7.06.06a1.7 1.7 0 0 0 1.88.34A1.7 1.7 0 0 0 12.67 5.2V4h2.4v1.2a1.7 1.7 0 0 0 1.03 1.56 1.7 1.7 0 0 0 1.88-.34l-.06-.06 1.7 1.7-.06.06A1.7 1.7 0 0 0 19.4 10a1.7 1.7 0 0 0 1.56 1.03H22v2.4h-1.04A1.7 1.7 0 0 0 19.4 15Z" />
  </symbol>
  <symbol id="refresh-cw" viewBox="0 0 24 24">
    <path d="M20 11a8 8 0 1 0 1.7 5.2" />
    <path d="M20 4v7h-7" />
  </symbol>
</svg>
