<svg xmlns="http://www.w3.org/2000/svg">
  <symbol id="circle-help" viewBox="0 0 24 24">
    <circle cx="12" cy="12" r="10" />
    <path d="M9.09 9a3 3 0 0 1 5.83 1c0 2-3 3-3 3" />
    <path d="M12 17h.01" />
  </symbol>
  <symbol id="settings" viewBox="0 0 24 24">
    <path d="M12.22 2h-.44a2 2 0 0 0-2 2v.18a2 2 0 0 1-1 1.73l-.43.25a2 2 0 0 1-2 0l-.15-.08a2 2 0 0 0-2.73.73l-.22.38a2 2 0 0 0 .73 2.73l.15.1a2 2 0 0 1 1 1.72v.51a2 2 0 0 1-1 1.74l-.15.09a2 2 0 0 0-.73 2.73l.22.38a2 2 0 0 0 2.73.73l.15-.08a2 2 0 0 1 2 0l.43.25a2 2 0 0 1 1 1.73V20a2 2 0 0 0 2 2h.44a2 2 0 0 0 2-2v-.18a2 2 0 0 1 1-1.73l.43-.25a2 2 0 0 1 2 0l.15.08a2 2 0 0 0 2.73-.73l.22-.38a2 2 0 0 0-.73-2.73l-.15-.09a2 2 0 0 1-1-1.74v-.5a2 2 0 0 1 1-1.74l.15-.09a2 2 0 0 0 .73-2.73l-.22-.38a2 2 0 0 0-2.73-.73l-.15.08a2 2 0 0 1-2 0l-.43-.25a2 2 0 0 1-1-1.73V4a2 2 0 0 0-2-2z" />
    <circle cx="12" cy="12" r="3" />
  </symbol>
  <symbol id="refresh-cw" viewBox="0 0 24 24">
    <path d="M3 12a9 9 0 1 0 3-6.7L3 8" />
    <path d="M3 3v5h5" />
  </symbol>
  <symbol id="trophy" viewBox="0 0 24 24">
    <path d="M8 21h8M12 17v4M7 4h10v5a5 5 0 0 1-10 0V4Z" />
    <path d="M7 6H3v2a4 4 0 0 0 4 4M17 6h4v2a4 4 0 0 1-4 4" />
  </symbol>
  <symbol id="star" viewBox="0 0 24 24">
    <path d="m12 3 2.8 5.7 6.2.9-4.5 4.4 1.1 6.2-5.6-2.9-5.6 2.9 1.1-6.2L3 9.6l6.2-.9L12 3Z" />
  </symbol>
  <symbol id="bolt" viewBox="0 0 24 24">
    <path d="M13 2 4 14h6l-1 8 9-12h-6l1-8Z" />
  </symbol>
  <symbol id="crown" viewBox="0 0 24 24">
    <path d="m3 7 4 4 5-7 5 7 4-4-2 11H5L3 7Z" />
    <path d="M5 21h14" />
  </symbol>
</svg>
