<svg xmlns="http://www.w3.org/2000/svg">
  <symbol id="circle-help" viewBox="0 0 24 24">
    <circle cx="12" cy="12" r="10" />
    <path d="M9.09 9a3 3 0 0 1 5.83 1c0 2-3 3-3 3" />
    <path d="M12 17h.01" />
  </symbol>
  <symbol id="settings" viewBox="0 0 24 24">
    <path d="M12.22 2h-.44a2 2 0 0 0-2 2v.18a2 2 0 0 1-1 1.73l-.43.25a2 2 0 0 1-2 0l-.15-.08a2 2 0 0 0-2.73.73l-.22.38a2 2 0 0 0 .73 2.73l.15.1a2 2 0 0 1 1 1.72v.51a2 2 0 0 1-1 1.74l-.15.09a2 2 0 0 0-.73 2.73l.22.38a2 2 0 0 0 2.73.73l.15-.08a2 2 0 0 1 2 0l.43.25a2 2 0 0 1 1 1.73V20a2 2 0 0 0 2 2h.44a2 2 0 0 0 2-2v-.18a2 2 0 0 1 1-1.73l.43-.25a2 2 0 0 1 2 0l.15.08a2 2 0 0 0 2.73-.73l.22-.38a2 2 0 0 0-.73-2.73l-.15-.09a2 2 0 0 1-1-1.74v-.5a2 2 0 0 1 1-1.74l.15-.09a2 2 0 0 0 .73-2.73l-.22-.38a2 2 0 0 0-2.73-.73l-.15.08a2 2 0 0 1-2 0l-.43-.25a2 2 0 0 1-1-1.73V4a2 2 0 0 0-2-2z" />
    <circle cx="12" cy="12" r="3" />
  </symbol>
  <symbol id="refresh-cw" viewBox="0 0 24 24">
    <path d="M3 12a9 9 0 1 0 3-6.7L3 8" />
    <path d="M3 3v5h5" />
  </symbol>
  <symbol id="rotate-ccw" viewBox="0 0 24 24">
    <path d="M3 12a9 9 0 1 0 3-6.7L3 8" />
    <path d="M3 3v5h5" />
  </symbol>
  <symbol id="factory-reset" viewBox="0 0 24 24">
    <path d="M3 21h18M5 21V8l6 3V8l6 3V5h2v16" />
    <path d="M8 14h1M13 14h1M8 18h1M13 18h1" />
  </symbol>
  <symbol id="save" viewBox="0 0 24 24">
    <path d="M5 3h12l3 3v15H4V3h1Z" />
    <path d="M8 3v6h8V3M8 21v-7h8v7" />
  </symbol>
  <symbol id="trophy" viewBox="0 0 24 24">
    <path d="M8 21h8M12 17v4M7 4h10v5a5 5 0 0 1-10 0V4Z" />
    <path d="M7 6H3v2a4 4 0 0 0 4 4M17 6h4v2a4 4 0 0 1-4 4" />
  </symbol>
  <symbol id="star" viewBox="0 0 24 24">
    <path d="m12 3 2.8 5.7 6.2.9-4.5 4.4 1.1 6.2-5.6-2.9-5.6 2.9 1.1-6.2L3 9.6l6.2-.9L12 3Z" />
  </symbol>
  <symbol id="bolt" viewBox="0 0 24 24">
    <path d="M13 2 4 14h6l-1 8 9-12h-6l1-8Z" />
  </symbol>
  <symbol id="crown" viewBox="0 0 24 24">
    <path d="m3 7 4 4 5-7 5 7 4-4-2 11H5L3 7Z" />
    <path d="M5 21h14" />
  </symbol>
  <symbol id="number-small" viewBox="0 0 24 24">
    <path d="M7 4v16M17 4v16M4 8h16M4 16h16" />
    <path d="M5 12h14" />
  </symbol>
  <symbol id="number-large" viewBox="0 0 24 24">
    <path d="M5 19V9M12 19V5M19 19V3" />
    <path d="M3 19h18" />
  </symbol>
  <symbol id="numbers" viewBox="0 0 24 24">
    <circle cx="7" cy="7" r="2" />
    <circle cx="17" cy="7" r="2" />
    <circle cx="7" cy="17" r="2" />
    <circle cx="17" cy="17" r="2" />
  </symbol>
  <symbol id="target" viewBox="0 0 24 24">
    <circle cx="12" cy="12" r="8" />
    <circle cx="12" cy="12" r="3" />
    <path d="M12 2v4M12 18v4M2 12h4M18 12h4" />
  </symbol>
  <symbol id="timer" viewBox="0 0 24 24">
    <circle cx="12" cy="13" r="8" />
    <path d="M9 2h6M12 5v2M12 13l4-2M19 6l1.5-1.5" />
  </symbol>
  <symbol id="motion" viewBox="0 0 24 24">
    <path d="M4 8c2.5-3 5.5-3 8 0s5.5 3 8 0" />
    <path d="M4 16c2.5-3 5.5-3 8 0s5.5 3 8 0" />
  </symbol>
</svg>
